<svg width="1280" height="360" viewBox="0 0 1280 360" fill="none" xmlns="http://www.w3.org/2000/svg" role="img" aria-label="Lumo UI - Beautiful e-commerce components for modern React apps">
  <defs>
    <linearGradient id="bg" x1="0" y1="0" x2="1280" y2="360" gradientUnits="userSpaceOnUse">
      <stop offset="0" stop-color="#0B1120"/>
      <stop offset="0.55" stop-color="#0F1B33"/>
      <stop offset="1" stop-color="#13213F"/>
    </linearGradient>
    <radialGradient id="glow" cx="0" cy="0" r="1" gradientUnits="userSpaceOnUse" gradientTransform="translate(1020 70) rotate(130) scale(420 420)">
      <stop offset="0" stop-color="#3B82F6" stop-opacity="0.55"/>
      <stop offset="0.5" stop-color="#2563EB" stop-opacity="0.18"/>
      <stop offset="1" stop-color="#2563EB" stop-opacity="0"/>
    </radialGradient>
    <linearGradient id="word" x1="80" y1="150" x2="640" y2="210" gradientUnits="userSpaceOnUse">
      <stop offset="0" stop-color="#FFFFFF"/>
      <stop offset="1" stop-color="#BFD3FF"/>
    </linearGradient>
    <linearGradient id="mark" x1="92" y1="116" x2="180" y2="204" gradientUnits="userSpaceOnUse">
      <stop offset="0" stop-color="#60A5FA"/>
      <stop offset="1" stop-color="#2563EB"/>
    </linearGradient>
    <linearGradient id="card" x1="0" y1="0" x2="0" y2="1">
      <stop offset="0" stop-color="#1E293B"/>
      <stop offset="1" stop-color="#0F172A"/>
    </linearGradient>
  </defs>

  <rect width="1280" height="360" rx="0" fill="url(#bg)"/>
  <rect width="1280" height="360" fill="url(#glow)"/>

  <!-- subtle grid -->
  <g stroke="#FFFFFF" stroke-opacity="0.035">
    <path d="M0 90 H1280 M0 180 H1280 M0 270 H1280"/>
    <path d="M160 0 V360 M320 0 V360 M480 0 V360 M640 0 V360 M800 0 V360 M960 0 V360 M1120 0 V360"/>
  </g>

  <!-- logo mark -->
  <g transform="translate(92 116)">
    <rect width="88" height="88" rx="22" fill="url(#mark)"/>
    <circle cx="44" cy="44" r="20" fill="#0B1120" fill-opacity="0.35"/>
    <circle cx="44" cy="44" r="11" fill="#FFFFFF"/>
  </g>

  <!-- wordmark -->
  <text x="208" y="168" font-family="'Segoe UI', Helvetica, Arial, sans-serif" font-size="76" font-weight="800" fill="url(#word)" letter-spacing="-2">Lumo UI</text>
  <text x="210" y="214" font-family="'Segoe UI', Helvetica, Arial, sans-serif" font-size="26" font-weight="500" fill="#93A4C4" letter-spacing="0.2">Beautiful e-commerce components for modern React apps</text>

  <!-- meta pills -->
  <g font-family="'Segoe UI', Helvetica, Arial, sans-serif" font-size="16" font-weight="600">
    <g transform="translate(210 252)">
      <rect width="118" height="34" rx="17" fill="#1E293B" stroke="#334155"/>
      <circle cx="20" cy="17" r="4" fill="#60A5FA"/>
      <text x="34" y="22" fill="#CBD5E1">React 18</text>
    </g>
    <g transform="translate(340 252)">
      <rect width="128" height="34" rx="17" fill="#1E293B" stroke="#334155"/>
      <circle cx="20" cy="17" r="4" fill="#38BDF8"/>
      <text x="34" y="22" fill="#CBD5E1">TypeScript</text>
    </g>
    <g transform="translate(480 252)">
      <rect width="138" height="34" rx="17" fill="#1E293B" stroke="#334155"/>
      <circle cx="20" cy="17" r="4" fill="#34D399"/>
      <text x="34" y="22" fill="#CBD5E1">Accessible</text>
    </g>
  </g>

  <!-- decorative product card -->
  <g transform="translate(910 70)">
    <rect width="280" height="220" rx="20" fill="url(#card)" stroke="#243352"/>
    <rect x="20" y="20" width="240" height="110" rx="12" fill="#172033"/>
    <rect x="150" y="32" width="56" height="22" rx="11" fill="#2563EB"/>
    <text x="178" y="48" text-anchor="middle" font-family="'Segoe UI', Helvetica, Arial, sans-serif" font-size="13" font-weight="700" fill="#E2E8F0">SALE</text>
    <rect x="20" y="146" width="150" height="14" rx="7" fill="#334155"/>
    <rect x="20" y="170" width="90" height="14" rx="7" fill="#1E293B"/>
    <rect x="170" y="160" width="90" height="40" rx="12" fill="#2563EB"/>
    <text x="215" y="185" text-anchor="middle" font-family="'Segoe UI', Helvetica, Arial, sans-serif" font-size="14" font-weight="700" fill="#FFFFFF">Add</text>
  </g>
</svg>
