<svg width="1280" height="360" viewBox="0 0 1280 360" fill="none" xmlns="http://www.w3.org/2000/svg" role="img" aria-label="Lumo UI - Luminous e-commerce components for React">
  <defs>
    <linearGradient id="paper" x1="0" y1="0" x2="1280" y2="360" gradientUnits="userSpaceOnUse">
      <stop offset="0" stop-color="#FFFDF5"/>
      <stop offset="1" stop-color="#FFF7E4"/>
    </linearGradient>
    <radialGradient id="glow1" cx="0" cy="0" r="1" gradientUnits="userSpaceOnUse" gradientTransform="translate(1050 40) rotate(125) scale(430)">
      <stop offset="0" stop-color="#FFC94D" stop-opacity="0.65"/>
      <stop offset="0.55" stop-color="#FFE49C" stop-opacity="0.30"/>
      <stop offset="1" stop-color="#FFE49C" stop-opacity="0"/>
    </radialGradient>
    <radialGradient id="glow2" cx="0" cy="0" r="1" gradientUnits="userSpaceOnUse" gradientTransform="translate(120 360) rotate(-58) scale(360)">
      <stop offset="0" stop-color="#FFB020" stop-opacity="0.28"/>
      <stop offset="1" stop-color="#FFB020" stop-opacity="0"/>
    </radialGradient>
    <linearGradient id="markg" x1="92" y1="116" x2="180" y2="204" gradientUnits="userSpaceOnUse">
      <stop offset="0" stop-color="#FFE49C"/>
      <stop offset="0.5" stop-color="#FFC94D"/>
      <stop offset="1" stop-color="#FFB020"/>
    </linearGradient>
    <radialGradient id="orb" cx="0.38" cy="0.34" r="0.72">
      <stop stop-color="#FFFFFF"/>
      <stop offset="0.55" stop-color="#FFF6DD"/>
      <stop offset="1" stop-color="#FFD874"/>
    </radialGradient>
    <radialGradient id="sun" cx="0.4" cy="0.38" r="0.7">
      <stop offset="0" stop-color="#FFE9A8"/>
      <stop offset="0.5" stop-color="#FFC94D"/>
      <stop offset="1" stop-color="#FFB020"/>
    </radialGradient>
    <linearGradient id="cardimg" x1="0" y1="0" x2="0" y2="1">
      <stop offset="0" stop-color="#FFE7B0"/>
      <stop offset="1" stop-color="#FFC94D"/>
    </linearGradient>
  </defs>

  <rect width="1280" height="360" fill="url(#paper)"/>
  <rect width="1280" height="360" fill="url(#glow1)"/>
  <rect width="1280" height="360" fill="url(#glow2)"/>

  <!-- soft sun -->
  <circle cx="1015" cy="92" r="78" fill="url(#sun)" opacity="0.9"/>

  <!-- logo mark -->
  <g transform="translate(92 116)">
    <rect width="88" height="88" rx="24" fill="url(#markg)"/>
    <circle cx="44" cy="44" r="21" fill="url(#orb)"/>
    <circle cx="44" cy="44" r="21" fill="none" stroke="#FFFFFF" stroke-opacity="0.6" stroke-width="2"/>
  </g>

  <!-- wordmark -->
  <text x="208" y="166" font-family="'Segoe UI', Helvetica, Arial, sans-serif" font-size="74" font-weight="800" fill="#3A3320" letter-spacing="-2.5">Lumo UI</text>
  <text x="210" y="212" font-family="'Segoe UI', Helvetica, Arial, sans-serif" font-size="25" font-weight="500" fill="#8A8268" letter-spacing="0.2">Luminous, accessible e-commerce components for React.</text>

  <!-- meta pills -->
  <g font-family="'Segoe UI', Helvetica, Arial, sans-serif" font-size="16" font-weight="600">
    <g transform="translate(210 250)">
      <rect width="118" height="34" rx="17" fill="#FFFFFF" stroke="#EDE3C7"/>
      <circle cx="20" cy="17" r="4" fill="#FFB020"/>
      <text x="34" y="22" fill="#5C5648">React 18</text>
    </g>
    <g transform="translate(340 250)">
      <rect width="128" height="34" rx="17" fill="#FFFFFF" stroke="#EDE3C7"/>
      <circle cx="20" cy="17" r="4" fill="#FFC94D"/>
      <text x="34" y="22" fill="#5C5648">TypeScript</text>
    </g>
    <g transform="translate(480 250)">
      <rect width="138" height="34" rx="17" fill="#FFFFFF" stroke="#EDE3C7"/>
      <circle cx="20" cy="17" r="4" fill="#34D399"/>
      <text x="34" y="22" fill="#5C5648">Accessible</text>
    </g>
  </g>

  <!-- decorative product card (glassy honey) -->
  <g transform="translate(910 66)">
    <rect width="280" height="228" rx="22" fill="#FFFFFF" stroke="#F0E6CC"/>
    <rect x="18" y="18" width="244" height="118" rx="14" fill="url(#cardimg)"/>
    <circle cx="78" cy="58" r="26" fill="#FFFFFF" opacity="0.5"/>
    <rect x="150" y="30" width="58" height="22" rx="11" fill="#FFB020"/>
    <text x="179" y="46" text-anchor="middle" font-family="'Segoe UI', Helvetica, Arial, sans-serif" font-size="12" font-weight="700" fill="#3A3320">SALE</text>
    <rect x="18" y="150" width="150" height="14" rx="7" fill="#EFE6D2"/>
    <rect x="18" y="174" width="92" height="14" rx="7" fill="#F6EFDD"/>
    <rect x="170" y="162" width="92" height="42" rx="13" fill="#FFB020"/>
    <text x="216" y="188" text-anchor="middle" font-family="'Segoe UI', Helvetica, Arial, sans-serif" font-size="14" font-weight="700" fill="#3A3320">Add</text>
  </g>
</svg>
